<svg xmlns="http://www.w3.org/2000/svg" xmlns:xlink="http://www.w3.org/1999/xlink" width="1080" zoomAndPan="magnify" viewBox="0 0 810 809.999993" height="1080" preserveAspectRatio="xMidYMid meet" version="1.0">
      <rect x="-81" width="972" fill="#ffffff" y="-80.999999" height="971.999992" fill-opacity="1"/>
      <rect x="-81" width="972" fill="#ffffff" y="-80.999999" height="971.999992" fill-opacity="1"/>
      <path fill="#000000" d="M 614.03125 394.546875 C 619.789062 394.546875 624.484375 399.242188 624.484375 405 L 624.484375 488.613281 L 645.386719 488.613281 L 645.386719 425.902344 C 645.386719 420.148438 650.082031 415.453125 655.839844 415.453125 C 661.59375 415.453125 666.289062 420.148438 666.289062 425.902344 L 666.289062 488.613281 L 687.195312 488.613281 L 687.195312 446.804688 C 687.195312 441.050781 691.886719 436.355469 697.644531 436.355469 C 703.402344 436.355469 708.097656 441.050781 708.097656 446.804688 L 708.097656 572.796875 C 708.097656 577.65625 706.953125 582.515625 704.789062 586.839844 L 687.195312 622.035156 L 687.195312 645.386719 L 519.96875 645.386719 L 519.96875 621.011719 L 493.183594 585.289062 C 489.917969 580.921875 487.835938 575.777344 487.144531 570.386719 L 479.753906 511.109375 C 478.445312 500.777344 474.730469 490.734375 468.933594 482.082031 L 458.195312 465.953125 C 457.585938 465.015625 457.257812 463.953125 457.257812 462.851562 C 457.257812 459.75 459.75 457.257812 462.851562 457.257812 C 484.9375 457.257812 504.085938 472.976562 508.414062 494.613281 L 521.847656 561.773438 L 547.320312 561.773438 L 556.261719 543.933594 C 559.855469 536.707031 561.773438 528.621094 561.773438 520.539062 L 561.773438 300.484375 C 561.773438 294.726562 566.46875 290.03125 572.226562 290.03125 C 577.980469 290.03125 582.675781 294.726562 582.675781 300.484375 L 582.675781 488.613281 L 603.582031 488.613281 L 603.582031 405 C 603.582031 399.242188 608.277344 394.546875 614.03125 394.546875 Z M 708.097656 708.097656 L 499.066406 708.097656 L 499.066406 666.289062 L 708.097656 666.289062 Z M 568.753906 269.496094 C 538.667969 249.164062 515.148438 220.914062 500.820312 187.476562 C 499.636719 184.742188 499.066406 181.882812 499.066406 177.921875 C 499.066406 172.207031 501.390625 166.613281 505.433594 162.570312 L 519.96875 148.039062 C 525.480469 142.527344 535.359375 142.527344 540.871094 148.039062 L 559.285156 166.449219 C 560.875 168.082031 561.773438 170.164062 561.773438 172.453125 L 561.773438 173.839844 C 561.773438 177.066406 559.976562 179.964844 557.078125 181.394531 C 547.078125 186.414062 540.871094 196.457031 540.871094 207.644531 L 540.871094 209.03125 C 540.871094 216.871094 543.933594 224.261719 549.484375 229.8125 L 559.285156 239.613281 C 564.835938 245.164062 572.226562 248.226562 580.066406 248.226562 L 581.453125 248.226562 C 592.640625 248.226562 602.683594 242.019531 607.703125 232.019531 C 609.132812 229.117188 612.03125 227.324219 615.257812 227.324219 L 616.644531 227.324219 C 618.929688 227.324219 621.011719 228.222656 622.648438 229.8125 L 641.058594 248.226562 C 643.792969 250.960938 645.386719 254.800781 645.386719 258.675781 C 645.386719 262.554688 643.792969 266.394531 641.058594 269.128906 L 626.523438 283.664062 C 620.117188 290.074219 609.582031 291.789062 601.457031 287.746094 L 600.558594 287.296875 C 595.578125 276.601562 584.800781 269.128906 572.226562 269.128906 C 571.042969 269.128906 569.898438 269.332031 568.753906 269.496094 Z M 467.710938 331.839844 C 450.398438 331.839844 436.355469 317.792969 436.355469 300.484375 L 436.355469 133.257812 C 436.355469 115.949219 450.398438 101.902344 467.710938 101.902344 L 676.742188 101.902344 C 694.050781 101.902344 708.097656 115.949219 708.097656 133.257812 L 708.097656 300.484375 C 708.097656 317.792969 694.050781 331.839844 676.742188 331.839844 L 603.582031 331.839844 L 603.582031 310.039062 C 606.070312 310.527344 608.601562 310.933594 611.175781 310.933594 C 622.359375 310.933594 633.34375 306.402344 641.304688 298.441406 L 655.839844 283.910156 C 662.574219 277.171875 666.289062 268.191406 666.289062 258.675781 C 666.289062 249.164062 662.574219 240.183594 655.839844 233.445312 L 637.425781 215.035156 C 631.875 209.480469 624.484375 206.417969 616.644531 206.417969 L 615.257812 206.417969 C 604.070312 206.417969 594.027344 212.625 589.003906 222.628906 C 587.578125 225.527344 584.679688 227.324219 581.453125 227.324219 L 580.066406 227.324219 C 577.777344 227.324219 575.695312 226.425781 574.0625 224.832031 L 564.265625 215.035156 C 562.671875 213.402344 561.773438 211.320312 561.773438 209.03125 L 561.773438 207.644531 C 561.773438 204.417969 563.570312 201.519531 566.46875 200.089844 C 576.472656 195.070312 582.675781 185.027344 582.675781 173.839844 L 582.675781 172.453125 C 582.675781 164.613281 579.617188 157.222656 574.0625 151.671875 L 555.648438 133.257812 C 542.175781 119.785156 518.660156 119.785156 505.1875 133.257812 L 490.652344 147.792969 C 482.691406 155.753906 478.160156 166.734375 478.160156 178.902344 C 478.160156 184.699219 479.304688 190.375 481.589844 195.683594 C 496.125 229.527344 518.988281 258.597656 548.179688 280.601562 C 543.6875 286.03125 540.871094 292.890625 540.871094 300.484375 L 540.871094 331.839844 Z M 676.742188 352.742188 C 705.566406 352.742188 729 329.308594 729 300.484375 L 729 133.257812 C 729 104.433594 705.566406 81 676.742188 81 L 467.710938 81 C 438.886719 81 415.453125 104.433594 415.453125 133.257812 L 415.453125 300.484375 C 415.453125 329.308594 438.886719 352.742188 467.710938 352.742188 L 540.871094 352.742188 L 540.871094 520.539062 C 540.871094 525.316406 539.769531 530.050781 537.6875 534.339844 L 528.910156 490.492188 C 522.664062 459.136719 494.859375 436.355469 462.851562 436.355469 C 448.234375 436.355469 436.355469 448.234375 436.355469 462.851562 C 436.355469 468.078125 437.90625 473.179688 440.804688 477.550781 L 451.582031 493.675781 C 455.542969 499.636719 458.117188 506.578125 459.011719 513.679688 L 466.402344 572.960938 C 467.546875 581.984375 471.015625 590.558594 476.445312 597.824219 L 499.066406 627.953125 L 499.066406 645.386719 L 478.160156 645.386719 L 478.160156 729 L 729 729 L 729 645.386719 L 708.097656 645.386719 L 708.097656 626.972656 L 723.488281 596.191406 C 727.082031 588.964844 729 580.882812 729 572.796875 L 729 446.804688 C 729 429.496094 714.957031 415.453125 697.644531 415.453125 C 693.523438 415.453125 689.601562 416.308594 685.96875 417.738281 C 682.375 404.429688 670.292969 394.546875 655.839844 394.546875 C 651.714844 394.546875 647.796875 395.40625 644.164062 396.835938 C 640.570312 383.523438 628.484375 373.644531 614.03125 373.644531 C 610.359375 373.644531 606.886719 374.421875 603.582031 375.5625 L 603.582031 352.742188 L 676.742188 352.742188 " fill-opacity="1" fill-rule="nonzero"/>
      <path fill="#000000" d="M 373.644531 634.933594 C 373.644531 652.246094 359.601562 666.289062 342.289062 666.289062 L 133.257812 666.289062 C 115.949219 666.289062 101.902344 652.246094 101.902344 634.933594 L 101.902344 467.710938 C 101.902344 450.398438 115.949219 436.355469 133.257812 436.355469 L 342.289062 436.355469 C 359.601562 436.355469 373.644531 450.398438 373.644531 467.710938 Z M 342.289062 415.453125 L 133.257812 415.453125 C 104.433594 415.453125 81 438.886719 81 467.710938 L 81 634.933594 C 81 663.757812 104.433594 687.195312 133.257812 687.195312 L 342.289062 687.195312 C 371.113281 687.195312 394.546875 663.757812 394.546875 634.933594 L 394.546875 467.710938 C 394.546875 438.886719 371.113281 415.453125 342.289062 415.453125 " fill-opacity="1" fill-rule="nonzero"/><path fill="#000000" d="M 373.644531 300.484375 C 373.644531 317.792969 359.601562 331.839844 342.289062 331.839844 L 133.257812 331.839844 C 115.949219 331.839844 101.902344 317.792969 101.902344 300.484375 L 101.902344 133.257812 C 101.902344 115.949219 115.949219 101.902344 133.257812 101.902344 L 342.289062 101.902344 C 359.601562 101.902344 373.644531 115.949219 373.644531 133.257812 Z M 342.289062 81 L 133.257812 81 C 104.433594 81 81 104.433594 81 133.257812 L 81 300.484375 C 81 329.308594 104.433594 352.742188 133.257812 352.742188 L 342.289062 352.742188 C 371.113281 352.742188 394.546875 329.308594 394.546875 300.484375 L 394.546875 133.257812 C 394.546875 104.433594 371.113281 81 342.289062 81 " fill-opacity="1" fill-rule="nonzero"/>
      <path fill="#000000" d="M 237.773438 248.226562 C 226.261719 248.226562 216.871094 238.835938 216.871094 227.324219 L 216.871094 206.417969 C 216.871094 194.90625 226.261719 185.515625 237.773438 185.515625 C 249.289062 185.515625 258.675781 194.90625 258.675781 206.417969 L 258.675781 227.324219 C 258.675781 238.835938 249.289062 248.226562 237.773438 248.226562 Z M 237.773438 122.804688 C 191.679688 122.804688 154.160156 160.324219 154.160156 206.417969 L 154.160156 227.324219 C 154.160156 273.414062 191.679688 310.933594 237.773438 310.933594 L 237.773438 290.03125 C 203.195312 290.03125 175.066406 261.902344 175.066406 227.324219 L 175.066406 206.417969 C 175.066406 171.839844 203.195312 143.710938 237.773438 143.710938 C 272.355469 143.710938 300.484375 171.839844 300.484375 206.417969 L 300.484375 258.675781 C 300.484375 264.433594 295.789062 269.128906 290.03125 269.128906 C 284.277344 269.128906 279.582031 264.433594 279.582031 258.675781 L 279.582031 206.417969 C 279.582031 183.351562 260.839844 164.613281 237.773438 164.613281 C 214.707031 164.613281 195.96875 183.351562 195.96875 206.417969 L 195.96875 227.324219 C 195.96875 250.390625 214.707031 269.128906 237.773438 269.128906 C 245.613281 269.128906 252.839844 266.84375 259.125 263.085938 C 261.289062 278.273438 274.230469 290.03125 290.03125 290.03125 C 307.34375 290.03125 321.386719 275.988281 321.386719 258.675781 L 321.386719 206.417969 C 321.386719 160.324219 283.867188 122.804688 237.773438 122.804688 " fill-opacity="1" fill-rule="nonzero"/>
      <path fill="#000000" d="M 187.273438 557.40625 L 143.710938 592.273438 L 143.710938 513.84375 Z M 266.066406 550.058594 C 250.960938 565.164062 224.585938 565.164062 209.480469 550.058594 L 158.488281 499.066406 L 317.058594 499.066406 Z M 288.277344 557.445312 L 331.839844 513.84375 L 331.839844 592.273438 Z M 202.910156 571.695312 C 213.074219 578.800781 225.117188 582.675781 237.773438 582.675781 C 250.429688 582.675781 262.472656 578.800781 272.640625 571.695312 L 312.488281 603.582031 L 163.0625 603.582031 Z M 122.804688 624.484375 L 352.742188 624.484375 L 352.742188 478.160156 L 122.804688 478.160156 L 122.804688 624.484375 " fill-opacity="1" fill-rule="nonzero"/>
</svg>