<svg xmlns="http://www.w3.org/2000/svg" xmlns:xlink="http://www.w3.org/1999/xlink" width="1080" zoomAndPan="magnify" viewBox="0 0 810 809.999993" height="1080" preserveAspectRatio="xMidYMid meet" version="1.0"><defs><clipPath id="0f074a7c27"><path d="M 81 100.441406 L 729 100.441406 L 729 709.441406 L 81 709.441406 Z M 81 100.441406 " clip-rule="nonzero"/></clipPath></defs><rect x="-81" width="972" fill="#ffffff" y="-80.999999" height="971.999992" fill-opacity="1"/><rect x="-81" width="972" fill="#ffffff" y="-80.999999" height="971.999992" fill-opacity="1"/><g clip-path="url(#0f074a7c27)"><path fill="#000000" d="M 342.378906 302.386719 C 342.378906 296.773438 346.929688 292.226562 352.539062 292.226562 L 549.378906 292.226562 C 554.988281 292.226562 559.539062 296.773438 559.539062 302.386719 C 559.539062 307.996094 554.988281 312.542969 549.378906 312.542969 L 352.539062 312.542969 C 346.929688 312.542969 342.378906 307.996094 342.378906 302.386719 Z M 352.539062 248.742188 L 549.378906 248.742188 C 554.988281 248.742188 559.539062 244.191406 559.539062 238.582031 C 559.539062 232.972656 554.988281 228.425781 549.378906 228.425781 L 352.539062 228.425781 C 346.929688 228.425781 342.378906 232.972656 342.378906 238.582031 C 342.378906 244.191406 346.929688 248.742188 352.539062 248.742188 Z M 352.539062 184.9375 L 549.378906 184.9375 C 554.988281 184.9375 559.539062 180.386719 559.539062 174.777344 C 559.539062 169.167969 554.988281 164.617188 549.378906 164.617188 L 352.539062 164.617188 C 346.929688 164.617188 342.378906 169.167969 342.378906 174.777344 C 342.378906 180.386719 346.929688 184.9375 352.539062 184.9375 Z M 243.683594 376.347656 L 549.378906 376.347656 C 554.988281 376.347656 559.539062 371.800781 559.539062 366.1875 C 559.539062 360.578125 554.988281 356.03125 549.378906 356.03125 L 243.683594 356.03125 C 238.070312 356.03125 233.523438 360.578125 233.523438 366.1875 C 233.523438 371.800781 238.070312 376.347656 243.683594 376.347656 Z M 243.683594 440.152344 L 549.378906 440.152344 C 554.988281 440.152344 559.539062 435.601562 559.539062 429.992188 C 559.539062 424.382812 554.988281 419.832031 549.378906 419.832031 L 243.683594 419.832031 C 238.070312 419.832031 233.523438 424.382812 233.523438 429.992188 C 233.523438 435.601562 238.070312 440.152344 243.683594 440.152344 Z M 266.453125 249.914062 L 271.542969 249.914062 C 278.492188 249.914062 284.148438 255.570312 284.148438 262.519531 C 284.148438 269.46875 278.492188 275.125 271.542969 275.125 L 264.375 275.125 C 260.359375 275.125 256.535156 273.15625 254.148438 269.851562 C 250.859375 265.308594 244.507812 264.285156 239.960938 267.574219 C 235.414062 270.859375 234.390625 277.210938 237.679688 281.757812 C 242.777344 288.804688 250.429688 293.515625 258.835938 294.964844 L 258.835938 304.730469 C 258.835938 310.34375 263.386719 314.890625 268.996094 314.890625 C 274.609375 314.890625 279.15625 310.34375 279.15625 304.730469 L 279.15625 294.554688 C 293.65625 291.109375 304.46875 278.054688 304.46875 262.519531 C 304.46875 244.363281 289.699219 229.597656 271.542969 229.597656 L 266.453125 229.597656 C 259.5 229.597656 253.84375 223.941406 253.84375 216.988281 C 253.84375 210.039062 259.5 204.382812 266.453125 204.382812 L 273.621094 204.382812 C 277.636719 204.382812 281.457031 206.355469 283.84375 209.65625 C 287.132812 214.203125 293.484375 215.222656 298.03125 211.9375 C 302.578125 208.648438 303.597656 202.296875 300.3125 197.75 C 295.214844 190.707031 287.5625 185.996094 279.15625 184.542969 L 279.15625 174.777344 C 279.15625 169.167969 274.605469 164.617188 268.996094 164.617188 C 263.382812 164.617188 258.835938 169.167969 258.835938 174.777344 L 258.835938 184.957031 C 244.339844 188.402344 233.519531 201.457031 233.519531 216.992188 C 233.523438 235.144531 248.292969 249.914062 266.453125 249.914062 Z M 728.863281 585.613281 C 728.863281 653.902344 673.296875 709.457031 604.996094 709.457031 C 584.621094 709.457031 565.378906 704.511719 548.40625 695.757812 L 192.75 695.757812 C 182.011719 695.757812 173.277344 687.023438 173.277344 676.289062 L 173.277344 215.570312 L 100.609375 215.570312 C 89.871094 215.570312 81.136719 206.835938 81.136719 196.101562 L 81.136719 156.640625 C 81.136719 125.640625 106.359375 100.421875 137.367188 100.421875 L 563.550781 100.421875 C 594.554688 100.421875 619.78125 125.640625 619.78125 156.640625 L 619.78125 462.65625 C 681.136719 469.984375 728.863281 522.328125 728.863281 585.613281 Z M 173.277344 195.253906 L 173.277344 156.640625 C 173.277344 136.84375 157.167969 120.738281 137.367188 120.738281 C 117.566406 120.738281 101.457031 136.84375 101.457031 156.640625 L 101.457031 195.253906 Z M 519.8125 675.441406 C 501.949219 658.5 489.125 636.308594 483.828125 611.363281 C 477.785156 608.683594 473.660156 604.886719 470.4375 601.917969 C 466.109375 597.933594 464.179688 596.308594 459.828125 596.152344 C 453.941406 595.890625 446.28125 603.078125 438.871094 609.980469 C 428.003906 620.097656 415.691406 631.5625 398.957031 631.5625 C 374.453125 631.5625 369.660156 609.664062 366.492188 595.175781 C 362.699219 577.851562 360.480469 574.351562 353.308594 574.351562 C 343.925781 574.351562 339.609375 578.25 331.496094 586.367188 C 320.871094 597 306.316406 611.558594 271.398438 611.558594 C 265.785156 611.558594 261.238281 607.011719 261.238281 601.402344 C 261.238281 595.789062 265.785156 591.242188 271.398438 591.242188 C 297.898438 591.242188 307.238281 581.898438 317.125 572.007812 C 325.542969 563.582031 335.085938 554.035156 353.308594 554.035156 C 378.289062 554.035156 383.132812 576.179688 386.34375 590.835938 C 390.058594 607.8125 392.179688 611.246094 398.957031 611.246094 C 407.699219 611.246094 416.113281 603.410156 425.019531 595.117188 C 435.464844 585.390625 446.289062 575.363281 460.558594 575.851562 C 470.277344 576.199219 476.519531 580.296875 481.144531 584.234375 C 481.484375 553.515625 493.058594 525.449219 511.953125 503.957031 L 243.683594 503.957031 C 238.070312 503.957031 233.523438 499.40625 233.523438 493.796875 C 233.523438 488.1875 238.070312 483.640625 243.683594 483.640625 L 534.792969 483.640625 C 553.339844 470.839844 575.527344 462.957031 599.460938 461.898438 L 599.460938 156.640625 C 599.460938 136.84375 583.351562 120.738281 563.550781 120.738281 L 180.605469 120.738281 C 188.714844 130.484375 193.597656 143.003906 193.597656 156.640625 L 193.597656 675.441406 Z M 708.542969 585.613281 C 708.542969 528.527344 662.089844 482.085938 604.996094 482.085938 C 547.898438 482.085938 501.445312 528.527344 501.445312 585.613281 C 501.445312 642.699219 547.898438 689.140625 604.996094 689.140625 C 662.089844 689.140625 708.542969 642.699219 708.542969 585.613281 Z M 668.003906 537 C 673.160156 542.125 676.011719 548.957031 676.03125 556.230469 C 676.054688 563.503906 673.238281 570.347656 668.109375 575.503906 L 610.039062 634.109375 C 604.734375 639.441406 597.71875 642.113281 590.707031 642.113281 C 583.847656 642.113281 576.988281 639.558594 571.726562 634.441406 L 542.195312 605.664062 C 536.984375 600.601562 534.058594 593.800781 533.957031 586.527344 C 533.859375 579.253906 536.597656 572.378906 541.667969 567.167969 C 546.738281 561.953125 553.539062 559.027344 560.8125 558.925781 C 568.101562 558.832031 574.964844 561.5625 580.179688 566.632812 L 590.378906 576.578125 L 629.476562 537.121094 C 629.480469 537.117188 629.488281 537.109375 629.492188 537.105469 C 634.621094 531.949219 641.449219 529.097656 648.726562 529.078125 C 648.75 529.078125 648.777344 529.078125 648.804688 529.078125 C 656.046875 529.078125 662.863281 531.886719 668.003906 537 Z M 655.710938 556.285156 C 655.707031 554.4375 654.984375 552.707031 653.675781 551.402344 C 652.371094 550.105469 650.640625 549.390625 648.800781 549.390625 C 648.796875 549.390625 648.789062 549.390625 648.78125 549.390625 C 646.9375 549.398438 645.207031 550.117188 643.90625 551.421875 L 597.722656 598.03125 C 593.796875 601.992188 587.410156 602.050781 583.410156 598.15625 L 566.003906 581.1875 C 564.710938 579.929688 563.003906 579.238281 561.195312 579.238281 C 561.160156 579.238281 561.128906 579.238281 561.09375 579.242188 C 559.246094 579.265625 557.523438 580.007812 556.234375 581.332031 C 554.945312 582.65625 554.25 584.398438 554.277344 586.246094 C 554.300781 588.09375 555.046875 589.816406 556.367188 591.105469 L 585.902344 619.882812 C 588.597656 622.503906 592.957031 622.472656 595.613281 619.796875 L 653.6875 561.191406 C 655.003906 559.867188 655.71875 558.128906 655.710938 556.285156 Z M 655.710938 556.285156 " fill-opacity="1" fill-rule="nonzero"/></g></svg>