<svg xmlns="http://www.w3.org/2000/svg" xmlns:xlink="http://www.w3.org/1999/xlink" width="1080" zoomAndPan="magnify" viewBox="0 0 810 809.999993" height="1080" preserveAspectRatio="xMidYMid meet" version="1.0"><defs><clipPath id="d2a771f906"><path d="M 85.628906 81 L 733.628906 81 L 733.628906 729 L 85.628906 729 Z M 85.628906 81 " clip-rule="nonzero"/></clipPath></defs><rect x="-81" width="972" fill="#ffffff" y="-80.999999" height="971.999992" fill-opacity="1"/><rect x="-81" width="972" fill="#ffffff" y="-80.999999" height="971.999992" fill-opacity="1"/><g clip-path="url(#d2a771f906)"><path fill="#000000" d="M 640.789062 266.808594 C 691.980469 266.808594 733.628906 225.160156 733.628906 173.96875 C 733.628906 122.777344 691.980469 81.128906 640.789062 81.128906 C 589.597656 81.128906 547.949219 122.777344 547.949219 173.96875 C 547.949219 225.160156 589.597656 266.808594 640.789062 266.808594 Z M 640.789062 102.027344 C 680.460938 102.027344 712.734375 134.296875 712.734375 173.96875 C 712.734375 213.640625 680.460938 245.914062 640.789062 245.914062 C 601.117188 245.914062 568.84375 213.640625 568.84375 173.96875 C 568.84375 134.296875 601.117188 102.027344 640.789062 102.027344 Z M 630.339844 173.96875 L 630.339844 125.019531 C 630.339844 119.25 635.019531 114.570312 640.789062 114.570312 C 646.558594 114.570312 651.238281 119.25 651.238281 125.019531 L 651.238281 167.9375 L 681.4375 185.375 C 686.433594 188.257812 688.144531 194.648438 685.261719 199.644531 C 683.324219 202.996094 679.8125 204.871094 676.203125 204.871094 C 674.429688 204.871094 672.636719 204.417969 670.988281 203.46875 L 635.5625 183.015625 C 632.332031 181.152344 630.339844 177.703125 630.339844 173.96875 Z M 338.648438 513.484375 L 353.78125 506.765625 C 361.277344 510.894531 369.179688 514.171875 377.386719 516.550781 L 383.332031 531.992188 C 384.882812 536.023438 388.757812 538.683594 393.082031 538.683594 L 426.4375 538.683594 C 430.761719 538.683594 434.636719 536.023438 436.1875 531.992188 L 442.128906 516.554688 C 450.34375 514.179688 458.25 510.898438 465.746094 506.765625 L 480.871094 513.484375 C 484.820312 515.238281 489.441406 514.378906 492.496094 511.324219 L 516.085938 487.738281 C 519.140625 484.679688 520 480.058594 518.246094 476.109375 L 511.527344 460.976562 C 515.660156 453.484375 518.9375 445.578125 521.3125 437.371094 L 536.753906 431.425781 C 540.785156 429.875 543.445312 426 543.445312 421.675781 L 543.445312 388.320312 C 543.445312 384 540.785156 380.125 536.753906 378.570312 L 521.320312 372.628906 C 518.941406 364.417969 515.664062 356.511719 511.527344 349.015625 L 518.246094 333.890625 C 520 329.9375 519.140625 325.316406 516.085938 322.261719 L 492.5 298.675781 C 489.441406 295.617188 484.820312 294.757812 480.871094 296.511719 L 465.738281 303.234375 C 458.246094 299.101562 450.339844 295.824219 442.132812 293.445312 L 436.191406 278.003906 C 434.636719 273.972656 430.761719 271.3125 426.441406 271.3125 L 393.082031 271.3125 C 388.761719 271.3125 384.886719 273.972656 383.332031 278.003906 L 377.390625 293.445312 C 369.183594 295.824219 361.277344 299.101562 353.785156 303.234375 L 338.652344 296.511719 C 334.703125 294.757812 330.082031 295.617188 327.023438 298.671875 L 303.4375 322.261719 C 300.382812 325.316406 299.523438 329.9375 301.277344 333.886719 L 307.996094 349.015625 C 303.863281 356.511719 300.585938 364.417969 298.207031 372.628906 L 282.769531 378.570312 C 278.738281 380.121094 276.074219 383.996094 276.074219 388.320312 L 276.074219 421.675781 C 276.074219 425.996094 278.738281 429.871094 282.769531 431.425781 L 298.203125 437.367188 C 300.582031 445.578125 303.859375 453.488281 307.992188 460.984375 L 301.277344 476.105469 C 299.519531 480.054688 300.378906 484.675781 303.4375 487.734375 L 327.023438 511.320312 C 330.078125 514.378906 334.699219 515.234375 338.648438 513.484375 Z M 328.605469 454.867188 C 323.304688 446.261719 319.433594 436.929688 317.101562 427.121094 C 316.304688 423.769531 313.90625 421.023438 310.691406 419.789062 L 296.96875 414.503906 L 296.96875 395.496094 L 310.695312 390.210938 C 313.90625 388.976562 316.308594 386.230469 317.105469 382.878906 C 319.4375 373.078125 323.308594 363.742188 328.605469 355.140625 C 330.414062 352.207031 330.65625 348.570312 329.257812 345.421875 L 323.285156 331.964844 L 336.726562 318.523438 L 350.179688 324.5 C 353.328125 325.898438 356.96875 325.65625 359.898438 323.847656 C 368.503906 318.550781 377.835938 314.679688 387.636719 312.347656 C 390.988281 311.550781 393.730469 309.152344 394.96875 305.9375 L 400.253906 292.207031 L 419.265625 292.207031 L 424.546875 305.9375 C 425.785156 309.152344 428.527344 311.550781 431.878906 312.347656 C 441.679688 314.679688 451.015625 318.550781 459.617188 323.847656 C 462.550781 325.652344 466.1875 325.898438 469.335938 324.5 L 482.792969 318.523438 L 496.238281 331.964844 L 490.265625 345.414062 C 488.867188 348.5625 489.109375 352.199219 490.914062 355.132812 C 496.214844 363.738281 500.085938 373.074219 502.417969 382.878906 C 503.214844 386.230469 505.613281 388.976562 508.828125 390.210938 L 522.550781 395.492188 L 522.550781 414.503906 L 508.824219 419.789062 C 505.609375 421.023438 503.210938 423.769531 502.414062 427.121094 C 500.082031 436.921875 496.210938 446.253906 490.914062 454.859375 C 489.105469 457.789062 488.863281 461.425781 490.261719 464.574219 L 496.238281 478.035156 L 482.796875 491.476562 L 469.34375 485.503906 C 466.195312 484.101562 462.558594 484.347656 459.625 486.15625 C 451.023438 491.453125 441.6875 495.324219 431.878906 497.65625 C 428.527344 498.453125 425.785156 500.855469 424.546875 504.066406 L 419.265625 517.792969 L 400.257812 517.792969 L 394.972656 504.0625 C 393.734375 500.847656 390.992188 498.449219 387.640625 497.652344 C 377.839844 495.320312 368.507812 491.449219 359.902344 486.152344 C 356.96875 484.34375 353.332031 484.101562 350.183594 485.5 L 336.730469 491.476562 L 323.285156 478.035156 L 329.261719 464.582031 C 330.65625 461.4375 330.410156 457.796875 328.605469 454.867188 Z M 409.757812 482.160156 C 452.304688 482.160156 486.917969 447.546875 486.917969 405 C 486.917969 362.453125 452.304688 327.839844 409.757812 327.839844 C 367.214844 327.839844 332.601562 362.453125 332.601562 405 C 332.601562 447.546875 367.214844 482.160156 409.757812 482.160156 Z M 409.757812 348.734375 C 440.785156 348.734375 466.023438 373.976562 466.023438 405 C 466.023438 436.023438 440.785156 461.265625 409.757812 461.265625 C 378.734375 461.265625 353.496094 436.023438 353.496094 405 C 353.496094 373.976562 378.734375 348.734375 409.757812 348.734375 Z M 96.335938 259.089844 L 260.40625 259.089844 C 263.371094 259.089844 266.195312 257.832031 268.175781 255.628906 C 270.15625 253.421875 271.109375 250.480469 270.792969 247.53125 C 267.0625 212.664062 244.480469 184.140625 213.792969 171.542969 C 224.082031 162.007812 230.535156 148.394531 230.535156 133.296875 C 230.535156 104.53125 207.136719 81.128906 178.371094 81.128906 C 149.605469 81.128906 126.207031 104.53125 126.207031 133.296875 C 126.207031 148.394531 132.664062 162.007812 142.949219 171.542969 C 112.265625 184.140625 89.679688 212.664062 85.949219 247.53125 C 85.632812 250.480469 86.585938 253.421875 88.566406 255.628906 C 90.546875 257.832031 93.371094 259.089844 96.335938 259.089844 Z M 147.101562 133.296875 C 147.101562 116.054688 161.128906 102.027344 178.371094 102.027344 C 195.613281 102.027344 209.640625 116.054688 209.640625 133.296875 C 209.640625 150.539062 195.613281 164.566406 178.371094 164.566406 C 161.128906 164.566406 147.101562 150.539062 147.101562 133.296875 Z M 178.371094 185.460938 C 211.296875 185.460938 239.355469 207.441406 247.828125 238.195312 L 108.914062 238.195312 C 117.386719 207.445312 145.445312 185.460938 178.371094 185.460938 Z M 732.746094 545.699219 C 732.671875 545.492188 732.605469 545.285156 732.519531 545.082031 C 732.367188 544.703125 732.191406 544.328125 731.996094 543.972656 C 731.328125 542.699219 730.46875 541.519531 729.425781 540.476562 L 707.507812 518.558594 C 706.464844 517.515625 705.289062 516.660156 704.019531 515.992188 C 703.65625 515.792969 703.28125 515.617188 702.894531 515.460938 C 702.710938 515.382812 702.523438 515.324219 702.335938 515.253906 C 702.246094 515.222656 702.15625 515.1875 702.0625 515.15625 C 700.570312 514.640625 698.988281 514.355469 697.363281 514.355469 L 577.699219 514.355469 C 569.785156 514.355469 563.347656 520.792969 563.347656 528.707031 L 563.347656 714.519531 C 563.347656 722.433594 569.785156 728.871094 577.699219 728.871094 L 719.277344 728.871094 C 727.191406 728.871094 733.628906 722.429688 733.628906 714.519531 L 733.628906 550.625 C 733.628906 548.992188 733.34375 547.414062 732.828125 545.917969 C 732.800781 545.84375 732.773438 545.773438 732.746094 545.699219 Z M 584.242188 707.972656 L 584.242188 535.25 L 688.53125 535.25 L 688.53125 547.054688 C 688.53125 553.890625 694.089844 559.453125 700.929688 559.453125 L 712.734375 559.453125 L 712.734375 707.972656 Z M 190.359375 519.929688 C 132.753906 519.929688 85.890625 566.796875 85.890625 624.402344 C 85.890625 682.003906 132.753906 728.871094 190.359375 728.871094 C 247.964844 728.871094 294.828125 682.003906 294.828125 624.402344 C 294.828125 566.796875 247.964844 519.929688 190.359375 519.929688 Z M 190.359375 707.972656 C 144.273438 707.972656 106.785156 670.484375 106.785156 624.402344 C 106.785156 578.316406 144.273438 540.824219 190.359375 540.824219 C 236.445312 540.824219 273.933594 578.316406 273.933594 624.402344 C 273.933594 670.484375 236.441406 707.972656 190.359375 707.972656 Z M 230.730469 645.148438 C 231.761719 653.664062 229.460938 661.460938 224.070312 667.695312 C 218.726562 673.871094 210.382812 678.246094 200.808594 680.085938 L 200.808594 683.898438 C 200.808594 689.667969 196.128906 694.34375 190.359375 694.34375 C 184.589844 694.34375 179.914062 689.667969 179.914062 683.898438 L 179.914062 679.914062 C 164.992188 676.609375 153.589844 666.371094 150.058594 652.21875 C 148.664062 646.621094 152.070312 640.949219 157.667969 639.554688 C 163.273438 638.167969 168.9375 641.566406 170.335938 647.164062 C 172.804688 657.0625 183.175781 660.371094 191.339844 660.152344 C 198.441406 659.984375 205.242188 657.523438 208.265625 654.027344 C 209.777344 652.277344 210.308594 650.316406 209.988281 647.667969 C 209.417969 643.007812 206.496094 637.285156 188.753906 634.371094 C 160.15625 629.675781 153.472656 614.605469 152.898438 602.789062 C 152.121094 586.773438 162.933594 573.335938 179.914062 569.070312 L 179.914062 564.902344 C 179.914062 559.132812 184.589844 554.457031 190.359375 554.457031 C 196.128906 554.457031 200.808594 559.132812 200.808594 564.902344 L 200.808594 568.976562 C 211.800781 571.613281 222.1875 578.730469 227.675781 591.792969 C 229.90625 597.113281 227.40625 603.238281 222.085938 605.472656 C 216.765625 607.707031 210.640625 605.203125 208.410156 599.882812 C 204.207031 589.878906 193.898438 587.320312 185.542969 589.207031 C 183.5 589.671875 173.316406 592.457031 173.769531 601.777344 C 173.886719 604.25 174.207031 610.808594 192.136719 613.753906 C 215.683594 617.617188 228.667969 628.179688 230.730469 645.148438 Z M 543.960938 636.03125 C 543.960938 641.800781 539.28125 646.476562 533.511719 646.476562 L 358.949219 646.476562 L 367.71875 651.542969 C 372.714844 654.425781 374.429688 660.816406 371.542969 665.8125 C 369.609375 669.164062 366.097656 671.039062 362.484375 671.039062 C 360.714844 671.039062 358.917969 670.585938 357.269531 669.636719 L 314.734375 645.078125 C 311.5 643.210938 309.511719 639.761719 309.511719 636.03125 C 309.511719 632.296875 311.5 628.847656 314.734375 626.984375 L 357.269531 602.421875 C 362.269531 599.539062 368.65625 601.25 371.542969 606.246094 C 374.425781 611.242188 372.714844 617.632812 367.71875 620.519531 L 358.949219 625.582031 L 533.511719 625.582031 C 539.285156 625.582031 543.960938 630.261719 543.960938 636.03125 Z M 272.976562 173.96875 C 272.976562 168.199219 277.652344 163.523438 283.421875 163.523438 L 474.019531 163.523438 L 465.25 158.457031 C 460.253906 155.574219 458.539062 149.183594 461.425781 144.1875 C 464.308594 139.1875 470.699219 137.476562 475.695312 140.363281 L 518.234375 164.921875 C 521.464844 166.789062 523.457031 170.238281 523.457031 173.96875 C 523.457031 177.703125 521.464844 181.152344 518.234375 183.019531 L 475.695312 207.578125 C 474.050781 208.527344 472.253906 208.976562 470.480469 208.976562 C 466.871094 208.976562 463.359375 207.105469 461.425781 203.753906 C 458.539062 198.757812 460.25 192.367188 465.246094 189.480469 L 474.019531 184.417969 L 283.421875 184.417969 C 277.652344 184.417969 272.976562 179.738281 272.976562 173.96875 Z M 168.28125 493.003906 L 168.28125 332.320312 L 163.21875 341.09375 C 160.332031 346.089844 153.941406 347.800781 148.945312 344.917969 C 143.949219 342.03125 142.238281 335.640625 145.121094 330.644531 L 169.683594 288.109375 C 171.546875 284.875 174.996094 282.882812 178.730469 282.882812 C 182.460938 282.882812 185.910156 284.875 187.777344 288.109375 L 212.335938 330.644531 C 215.222656 335.640625 213.507812 342.03125 208.511719 344.917969 C 203.515625 347.800781 197.125 346.089844 194.242188 341.09375 L 189.175781 332.320312 L 189.175781 493.003906 C 189.175781 498.773438 184.5 503.449219 178.730469 503.449219 C 172.960938 503.449219 168.28125 498.773438 168.28125 493.003906 Z M 651.238281 296.972656 L 651.238281 447.703125 L 656.300781 438.933594 C 659.1875 433.933594 665.578125 432.222656 670.574219 435.109375 C 675.570312 437.996094 677.28125 444.382812 674.398438 449.378906 L 649.835938 491.917969 C 647.972656 495.152344 644.523438 497.140625 640.789062 497.140625 C 637.058594 497.140625 633.609375 495.152344 631.742188 491.917969 L 607.183594 449.378906 C 604.300781 444.382812 606.011719 437.996094 611.007812 435.109375 C 616.003906 432.222656 622.394531 433.9375 625.277344 438.933594 L 630.339844 447.703125 L 630.339844 296.972656 C 630.339844 291.203125 635.019531 286.523438 640.789062 286.523438 C 646.558594 286.523438 651.238281 291.203125 651.238281 296.972656 Z M 651.238281 296.972656 " fill-opacity="1" fill-rule="nonzero"/></g></svg>